<svg xmlns="http://www.w3.org/2000/svg" width="16" height="16" viewBox="0 0 16 16">
  <path fill="#22313F" fill-rule="evenodd" d="M9.18848519,8.00001761 L12.7538527,4.43465007 C13.0820491,4.10645371 13.0820491,3.57434364 12.7538527,3.24619423 C12.4256564,2.91799786 11.8935932,2.91799786 11.5653969,3.24619423 L7.99998239,6.81160871 L4.4345679,3.24614727 C4.10637154,2.91795091 3.57430842,2.91795091 3.24611206,3.24614727 C2.91796265,3.57434364 2.91796265,4.10645371 3.24611206,4.43460312 L6.81152655,7.99997065 L3.24611206,11.5653851 C2.91796265,11.8935815 2.91796265,12.4256916 3.24611206,12.753841 C3.57430842,13.0820374 4.10637154,13.0820374 4.4345679,12.753841 L7.99998239,9.1884265 L11.5653969,12.753841 C11.8935463,13.0820374 12.4256564,13.0820374 12.7538527,12.753841 C13.0820491,12.4256446 13.0820491,11.8935815 12.7538527,11.5653851 L9.18848519,8.00001761 Z"/>
</svg>
