<svg xmlns="http://www.w3.org/2000/svg" width="16" height="16" viewBox="0 0 16 16">
  <path fill="#22313F" fill-rule="evenodd" d="M0.871,5.35566621 C0.871,5.16244153 0.941,4.99668025 1.08,4.85936321 C1.232,4.71125698 1.407,4.63671344 1.604,4.63671344 L5.766,4.63671344 C5.964,4.63671344 6.133,4.71125698 6.272,4.85936321 C6.424,4.99668025 6.499,5.16244153 6.499,5.35566621 C6.499,5.54987174 6.424,5.71563302 6.272,5.85295005 C6.133,5.98928625 5.964,6.05892561 5.766,6.05892561 L1.604,6.05892561 C1.407,6.05892561 1.232,5.98928625 1.08,5.85295005 C0.941,5.71563302 0.871,5.54987174 0.871,5.35566621 L0.871,5.35566621 Z M2.721,7.45759771 C2.523,7.45759771 2.354,7.52527539 2.214,7.66259242 C2.075,7.79892863 2.005,7.97057492 2.005,8.17655048 C2.005,8.36977516 2.075,8.53553644 2.214,8.67285348 C2.354,8.81017051 2.523,8.87882903 2.721,8.87882903 L5.766,8.87882903 C5.964,8.87882903 6.133,8.81017051 6.272,8.67285348 C6.424,8.52376641 6.499,8.35408179 6.499,8.15889543 C6.499,7.9646899 6.424,7.79892863 6.272,7.66259242 C6.133,7.52527539 5.964,7.45759771 5.766,7.45759771 L2.721,7.45759771 Z M4.367,13.0601328 C4.565,13.0601328 4.734,12.9924551 4.873,12.8551381 C5.013,12.717821 5.083,12.5520598 5.083,12.3588351 C5.083,12.1636487 5.013,11.9978874 4.873,11.8615512 C4.734,11.7124642 4.565,11.6389015 4.367,11.6389015 C4.169,11.6389015 3.994,11.7124642 3.843,11.8615512 C3.703,11.9978874 3.633,12.1636487 3.633,12.3588351 C3.633,12.5520598 3.703,12.717821 3.843,12.8551381 C3.994,12.9924551 4.169,13.0601328 4.367,13.0601328 L4.367,13.0601328 Z M13.1,12.3588351 C13.1,12.1636487 13.024,11.9978874 12.873,11.8615512 C12.733,11.7124642 12.564,11.6389015 12.367,11.6389015 C12.169,11.6389015 11.994,11.7124642 11.843,11.8615512 C11.703,11.9978874 11.633,12.1636487 11.633,12.3588351 C11.633,12.5520598 11.703,12.717821 11.843,12.8551381 C11.994,12.9924551 12.169,13.0601328 12.367,13.0601328 C12.564,13.0601328 12.733,12.9924551 12.873,12.8551381 C13.024,12.717821 13.1,12.5520598 13.1,12.3588351 L13.1,12.3588351 Z M12.782,6.38063981 L12.628,5.96280368 C12.392,5.32133695 11.77,4.89467331 11.075,4.89467331 L9.133,4.89467331 C9.018,4.89467331 8.924,4.93096424 8.848,5.00648861 C8.771,5.08103214 8.733,5.17323072 8.733,5.28602686 L8.733,6.83182435 C8.733,6.92990795 8.771,7.02406821 8.848,7.11038177 C8.924,7.18492531 9.018,7.22219707 9.133,7.22219707 L12.18,7.22219707 C12.624,7.22219707 12.934,6.79062924 12.782,6.38063981 L12.782,6.38063981 Z M16,12.3588351 C16,12.5520598 15.93,12.717821 15.79,12.8551381 C15.65,12.9924551 15.481,13.0601328 15.284,13.0601328 L14.428,13.0601328 C14.276,13.4828731 14.009,13.8261657 13.624,14.0880489 C13.252,14.3636638 12.833,14.5 12.367,14.5 C11.901,14.5 11.475,14.3636638 11.092,14.0880489 C10.719,13.8261657 10.457,13.4828731 10.306,13.0601328 L6.428,13.0601328 C6.265,13.4828731 5.997,13.8261657 5.624,14.0880489 C5.252,14.3636638 4.832,14.5 4.367,14.5 C3.971,14.5 3.604,14.4028972 3.267,14.2086917 C2.94,14.0144862 2.678,13.7575072 2.48,13.4377546 C2.282,13.1062321 2.183,12.7462653 2.183,12.3588351 C2.183,11.9694432 2.282,11.6163422 2.48,11.2965897 C2.678,10.9650671 2.94,10.7022031 3.267,10.5079976 C3.604,10.3137921 3.971,10.2166893 4.367,10.2166893 C4.832,10.2166893 5.252,10.3481213 5.624,10.6100045 C5.997,10.8738494 6.265,11.2161612 6.428,11.6389015 C6.891,11.6389015 7.267,11.2701071 7.267,10.8159801 L7.267,3.76180776 C7.267,3.3076807 6.891,2.93888637 6.428,2.93888637 L0.716,2.93888637 C0.518,2.93888637 0.35,2.87120869 0.209,2.73389166 C0.07,2.58578542 0,2.41413913 0,2.2199336 C0,2.02474725 0.07,1.86094764 0.209,1.72264977 C0.35,1.57454353 0.518,1.5 0.716,1.5 L7.633,1.5 C7.935,1.5 8.192,1.60298778 8.401,1.80896333 C8.623,2.01493889 8.733,2.2660329 8.733,2.56224536 L8.733,3.64214577 L11.267,3.64214577 C11.907,3.64214577 12.489,3.83537045 13.013,4.22476234 C13.537,4.61219255 13.887,5.10947638 14.061,5.71465218 L14.341,6.70823902 C14.388,6.84653689 14.475,6.96619888 14.602,7.06820582 C14.73,7.1711936 14.876,7.25162215 15.039,7.3075298 C15.318,7.42228761 15.546,7.60570394 15.721,7.85679795 C15.907,8.10789196 16,8.38743021 16,8.69541271 L16,12.3588351 Z"/>
</svg>
