<svg xmlns="http://www.w3.org/2000/svg" width="16" height="16" viewBox="0 0 16 16">
  <path fill="#22313F" fill-rule="evenodd" d="M8.8032,4.0601 L8.8032,8.2861 C8.8032,8.4841 8.7242,8.6751 8.5832,8.8161 L6.3162,11.0841 C6.1692,11.2301 5.9772,11.3041 5.7852,11.3041 C5.5942,11.3041 5.4022,11.2301 5.2552,11.0841 C4.9622,10.7911 4.9622,10.3161 5.2552,10.0231 L7.3032,7.9751 L7.3032,4.0601 C7.3032,3.6461 7.6392,3.3101 8.0532,3.3101 C8.4672,3.3101 8.8032,3.6461 8.8032,4.0601 M8.0002,14.5001 C4.4102,14.5001 1.5002,11.5901 1.5002,8.0001 C1.5002,4.4101 4.4102,1.5001 8.0002,1.5001 C11.5902,1.5001 14.5002,4.4101 14.5002,8.0001 C14.5002,11.5901 11.5902,14.5001 8.0002,14.5001 M8.0002,0.0001 C3.5892,0.0001 0.0002,3.5891 0.0002,8.0001 C0.0002,12.4111 3.5892,16.0001 8.0002,16.0001 C12.4112,16.0001 16.0002,12.4111 16.0002,8.0001 C16.0002,3.5891 12.4112,0.0001 8.0002,0.0001"/>
</svg>
