<svg xmlns="http://www.w3.org/2000/svg" width="24" height="24" viewBox="0 0 24 24">
  <path fill="#2F6BFF" fill-rule="evenodd" d="M10,0 C15.514,0 20,4.486 20,10 C20,15.514 15.514,20 10,20 C4.486,20 0,15.514 0,10 C0,4.486 4.486,0 10,0 Z M10,2 C5.589,2 2,5.589 2,10 C2,14.411 5.589,18 10,18 C14.411,18 18,14.411 18,10 C18,5.589 14.411,2 10,2 Z M10,5 C12.7614237,5 15,7.23857625 15,10 C15,12.7614237 12.7614237,15 10,15 C7.23857625,15 5,12.7614237 5,10 C5,7.23857625 7.23857625,5 10,5 Z" transform="translate(2 2)"/>
</svg>
