<svg xmlns="http://www.w3.org/2000/svg" width="24" height="24" viewBox="0 0 24 24">
  <path fill="#22313F" fill-rule="evenodd" d="M13.1494,13.9121 C13.1054,14.5251 12.6034,15.0001 11.9984,15.0001 C11.3934,15.0001 10.8914,14.5251 10.8484,13.9121 L10.5024,10.6321 C10.4404,9.7501 11.1284,9.0001 11.9984,9.0001 C12.8694,9.0001 13.5564,9.7501 13.4954,10.6321 L13.1494,13.9121 Z M11.9984,18.0001 C11.4464,18.0001 10.9984,17.5531 10.9984,17.0001 C10.9984,16.4471 11.4464,16.0001 11.9984,16.0001 C12.5504,16.0001 12.9984,16.4471 12.9984,17.0001 C12.9984,17.5531 12.5504,18.0001 11.9984,18.0001 L11.9984,18.0001 Z M21.6394,17.1051 L14.1434,4.2481 C13.1724,2.5841 10.8274,2.5841 9.8564,4.2481 L2.3594,17.1051 C1.3604,18.8191 2.5604,21.0001 4.5034,21.0001 L19.4964,21.0001 C21.4394,21.0001 22.6394,18.8191 21.6394,17.1051 L21.6394,17.1051 Z"/>
</svg>
